<svg xmlns="http://www.w3.org/2000/svg" width="70" height="70" viewBox="0 0 70 70">
  <g fill="none" transform="translate(18 20)">
    <path fill="#FFF" d="M10.0499902,2 L24,2 C26.4116084,-1.00709576 28.0782751,-0.0219863879 29,4.95532811 C29.2396991,6.24970347 28.190687,8.43107627 29,10 C29.3980414,10.771638 31.9735824,10.7217069 32,11.6597664 C32.0262301,12.5911689 34.1838362,13.1791478 34,14.6505987 C33.8821848,15.5936083 31.6444582,16.960321 31,18.8892056 C30.6129972,20.0475179 31.4896682,25.0622119 31,27.8438551 C30.854571,28.6699892 30.1879043,29.0553708 29,29 L4,29 C4.55362997,23.8546926 4.55362997,20.4844278 4,18.8892056 C3.06565629,16.1969998 1,15.8824412 1,14 C1,10.4444444 2.66666667,8.77777778 6,9 C6.00395012,6.57201998 6.26783033,4.90535332 6.79164063,4 C7.31545092,3.09464668 8.40156746,2.42798002 10.0499902,2 Z"/>
    <rect width="17" height="8" x="9" y="21" fill="#CCC"/>
    <rect width="17" height="4" x="9" y="17" fill="#FF7100"/>
    <path fill="#000" d="M30.2876465,9.53873832 L30.2876465,8.23738318 C30.2876465,3.70850467 26.6942676,0.0240420561 22.2775,0.0240420561 L12.7225,0.0240420561 C8.30566406,0.0240420561 4.71235352,3.70857477 4.71235352,8.23738318 L4.71235352,9.53873832 C2.08673828,9.70492991 0,11.9468692 0,14.6801636 C0,16.720514 1.17749023,18.5463785 2.94485352,19.3708178 L2.94485352,27.9759579 C2.94485352,29.0805274 3.84028402,29.9759579 4.94485352,29.9759579 L7.97063477,29.9759579 L10.0499219,29.9759579 L24.9500098,29.9759579 L27.0292969,29.9759579 L30.0550781,29.9759579 C31.1596476,29.9759579 32.0550781,29.0805274 32.0550781,27.9759579 L32.0550781,19.3708178 C33.8225098,18.5463084 35,16.720514 35,14.6801636 C35,11.9468692 32.9132617,9.70492991 30.2876465,9.53873832 Z M7.97063477,15.9904206 L7.97063477,18.1224533 L7.97063477,19.6557477 L7.97063477,21.7877804 L7.97063477,27.8438551 L5.02414062,27.8438551 L5.02414062,17.8085047 L4.25530273,17.595771 C2.97411133,17.2413084 2.07928711,16.0423598 2.07928711,14.6801636 C2.07928711,13.0146729 3.40067383,11.6597664 5.02496094,11.6597664 C5.20925781,11.6597664 5.38938477,11.6780607 5.56438477,11.7114252 C5.60382812,11.7189252 5.64292969,11.7273364 5.68175781,11.7363785 C5.68941406,11.7381308 5.69693359,11.7399533 5.70452148,11.7417757 C5.73767578,11.7497664 5.77048828,11.7583879 5.80316406,11.7675 C5.81854492,11.7718458 5.83385742,11.7764019 5.84916992,11.7809579 C5.87446289,11.7884579 5.8996875,11.7962383 5.92463867,11.8043692 C5.95150391,11.813271 5.97830078,11.8226636 6.00482422,11.8321963 C6.01849609,11.8371028 6.03223633,11.8418692 6.04583984,11.846986 C6.8971875,12.1705374 7.56430664,12.8865421 7.83685547,13.779743 C7.83849609,13.7852804 7.84006836,13.7908879 7.84170898,13.7964953 C7.85319336,13.8351168 7.86399414,13.8739486 7.87411133,13.9132009 C7.87766602,13.9270093 7.88081055,13.9408879 7.88416016,13.9548364 C7.89167969,13.9862383 7.89892578,14.0177804 7.90555664,14.0496729 C7.90917969,14.0668458 7.91246094,14.0840888 7.91574219,14.1013318 C7.9212793,14.1305607 7.92640625,14.1598598 7.93112305,14.1894393 C7.93413086,14.208014 7.93700195,14.2265187 7.93966797,14.2452336 C7.94383789,14.2746028 7.94739258,14.3041121 7.95067383,14.3336916 C7.95272461,14.3521262 7.95498047,14.3704907 7.95668945,14.3889953 C7.95969727,14.4210981 7.96188477,14.4535514 7.96386719,14.4859346 C7.96482422,14.5019159 7.96619141,14.5178271 7.96701172,14.5338785 C7.96926758,14.5823832 7.97063477,14.631028 7.97063477,14.6800935 L7.97063477,15.9904206 Z M10.0499902,27.8439252 L10.0499902,21.7878505 L24.9500781,21.7878505 L24.9500781,27.8439252 L10.0499902,27.8439252 Z M10.0499902,19.6558178 L10.0499902,18.1225935 L24.9500781,18.1225935 L24.9500781,19.6558178 L10.0499902,19.6558178 Z M25.1782617,13.1434346 C25.1758008,13.1515654 25.1735449,13.1597664 25.1711523,13.1678972 C25.1516016,13.2332944 25.1332812,13.2992523 25.1162598,13.3656308 C25.1112695,13.3850467 25.106416,13.4045327 25.1016309,13.4240187 C25.0869336,13.4840187 25.0733984,13.5442991 25.0608203,13.605 C25.0571289,13.6225935 25.0530957,13.6401869 25.0496777,13.6578505 C25.0346387,13.7343224 25.0210352,13.811215 25.0093457,13.8888084 C25.0072949,13.9025467 25.0057227,13.9164252 25.0038086,13.9302336 C24.9947168,13.9938084 24.9867871,14.0578037 24.9799512,14.1221495 C24.9772168,14.1475234 24.9750293,14.1729673 24.9727051,14.1984112 C24.9675781,14.2546963 24.9634082,14.3112617 24.9600586,14.3679673 C24.958623,14.3922196 24.9569824,14.4163318 24.9558887,14.4406542 C24.952334,14.5201402 24.9500098,14.5998364 24.9500098,14.6800935 L24.9500098,15.9904206 L22.6985254,15.9904206 L22.6985254,8.15878505 C22.6985254,7.6065003 22.2508101,7.15878505 21.6985254,7.15878505 L21.6192383,7.15878505 C21.0669535,7.15878505 20.6192383,7.6065003 20.6192383,8.15878505 L20.6192383,15.9904907 L18.5396777,15.9904907 L18.5396777,8.15878505 C18.5396777,7.6065003 18.0919625,7.15878505 17.5396777,7.15878505 L17.4603906,7.15878505 C16.9081059,7.15878505 16.4603906,7.6065003 16.4603906,8.15878505 L16.4603906,15.9904907 L14.3807617,15.9904907 L14.3807617,8.15878505 C14.3807617,7.6065003 13.9330465,7.15878505 13.3807617,7.15878505 L13.3014746,7.15878505 C12.7491899,7.15878505 12.3014746,7.6065003 12.3014746,8.15878505 L12.3014746,15.9904907 L10.0499902,15.9904907 L10.0499902,14.6801636 C10.0499902,14.5999065 10.047666,14.5202103 10.0441113,14.4407243 C10.0430176,14.4164019 10.0413086,14.3922897 10.0399414,14.3680374 C10.0365918,14.3112617 10.0324902,14.2547664 10.0272949,14.1984813 C10.0250391,14.1730374 10.0227148,14.1475935 10.0200488,14.1222196 C10.0132812,14.0578738 10.0052832,13.9940187 9.99619141,13.9303037 C9.99427734,13.9164953 9.99270508,13.9026168 9.9906543,13.8888785 C9.97896484,13.8113551 9.96536133,13.7343925 9.95032227,13.6579206 C9.94676758,13.6401869 9.94287109,13.6227336 9.93917969,13.6050701 C9.9265332,13.5443692 9.91299805,13.4840187 9.89836914,13.4240888 C9.89358398,13.4045327 9.88873047,13.3850467 9.88374023,13.3657009 C9.86665039,13.2992523 9.84839844,13.2332243 9.8287793,13.167757 C9.82638672,13.1596963 9.82419922,13.1516355 9.82173828,13.1435748 C9.36379883,11.6397196 8.25022461,10.4155374 6.79164062,9.8560514 L6.79164062,8.23738318 C6.79164062,4.88411215 9.45225586,2.15607477 12.7225,2.15607477 L22.2775,2.15607477 C25.5478125,2.15607477 28.2083594,4.88418224 28.2083594,8.23738318 L28.2083594,9.85598131 C26.7498437,10.4154673 25.6362012,11.6396495 25.1782617,13.1434346 Z M30.7446289,17.595771 L29.975791,17.8085047 L29.975791,27.8439252 L27.0292969,27.8439252 L27.0292969,21.7878505 L27.0292969,19.6558178 L27.0292969,18.1225935 L27.0292969,15.9905607 L27.0292969,14.6802336 C27.0292969,14.6311682 27.0306641,14.5825234 27.0329199,14.5340187 C27.0336719,14.5179673 27.0350391,14.5020561 27.0360645,14.4860748 C27.0380469,14.4536916 27.0403027,14.4212383 27.0432422,14.3891355 C27.0449512,14.3706308 27.047207,14.3522664 27.0492578,14.3338318 C27.0526074,14.3041822 27.0560938,14.2746729 27.0602637,14.2453738 C27.0629297,14.226729 27.0658008,14.2081542 27.0688086,14.1895794 C27.0735254,14.1600701 27.0786523,14.1307009 27.0841895,14.101472 C27.0874707,14.084229 27.090752,14.0669159 27.094375,14.0498131 C27.1009375,14.0179907 27.1081836,13.9864486 27.1157715,13.9549766 C27.1191211,13.9410981 27.1222656,13.9272196 27.1258203,13.9133411 C27.1358691,13.8740888 27.1466699,13.835257 27.1582227,13.7966355 C27.1598633,13.7910981 27.1613672,13.7854907 27.1630762,13.7798832 C27.4356934,12.8866822 28.1028125,12.1706776 28.9540918,11.8471262 C28.9676953,11.8420093 28.9813672,11.837243 28.9951074,11.8323364 C29.0216992,11.8226636 29.0484277,11.813271 29.075293,11.8045093 C29.1003125,11.7963084 29.1254688,11.7885981 29.1507617,11.7810981 C29.1660742,11.7765421 29.1813867,11.771986 29.1967676,11.7676402 C29.2294434,11.758528 29.2622559,11.7499065 29.2954102,11.7419159 C29.302998,11.7400935 29.3105859,11.738271 29.3181738,11.7365187 C29.357002,11.7274766 29.3961035,11.7190654 29.4355469,11.7115654 C29.6105469,11.6781308 29.7906738,11.6599065 29.9749707,11.6599065 C31.5992578,11.6599065 32.9206445,13.0148131 32.9206445,14.6803037 C32.9207129,16.0423598 32.0258203,17.2413084 30.7446289,17.595771 Z"/>
  </g>
</svg>
